<svg viewBox="0 0 464 174" fill="none" xmlns="http://www.w3.org/2000/svg">
    <path d="M177.2 3.62177C175.3 5.02177 170.7 9.32177 167 13.0218C167 13.0218 162 17.5 161 19.5C160.476 20.5479 160 21.8284 160 23C160 24.1716 159.827 24.5411 160.5 25.5C160.993 26.2017 162.1 26.9218 162.1 26.9218C163.2 27.4218 164.6 27.9218 165.1 27.9218C165.7 27.9218 169.2 24.8218 173 21.1218C176.7 17.3218 181.6 12.8218 184 11.0218C184 11.0218 186.979 8.5197 187.5 6.5C187.715 5.66812 187.5 3.5 187.5 3.5C186.5 0 182.7 -0.578231 177.2 3.62177Z" fill="currentColor"/>
    <path d="M393.7 6.92177C390.9 8.02177 375.239 25.2036 374.7 26.8218C374.161 28.4399 374.349 28.6112 374.5 29.5C374.676 30.5359 376 31.5 376 31.5C377 32 377.978 32.5 379.078 32.5C380.178 32.5 381 32.5 382 32C383 31.5 390.6 23.2218 390.6 23.2218C390.6 23.2218 399.3 13.5 399.5 13C399.7 12.5 400 11.4763 400 10.5C400 9.52369 399.998 9.33998 399.5 8.5C399.036 7.71634 398 7 398 7C398 7 396.629 6.18833 395.7 6.12177C394.861 6.06166 393.7 6.92177 393.7 6.92177Z" fill="currentColor"/>
    <path d="M74 53.8217C60 65.3217 19.4001 81.9217 18.2 81.9217C17 81.9217 14.2748 82.5716 13.3 81.9217C12.5141 81.3978 11.8459 80.8327 11.4 80C10.9466 79.1532 11 77.9606 11 77C11 74.8783 11.4 72.5217 11.4 72.5217C11.7 69.7217 12.9 65.2217 14.1 62.6217L16.3 57.7217L14.7 55.3217C13.9 54.0217 12.3 52.9217 11.2 52.9217C8.20003 52.9217 5.50003 56.6217 3.10003 63.6217C3.10003 63.6217 1.31685 67.473 1.00003 70.1217C0.702622 72.6083 0.343804 74.0006 0.500013 76.5C0.656223 78.9994 0.728621 80.6583 1.80003 82.9217C2.36144 84.1078 3.80003 85.6217 3.80003 85.6217C4.90003 87.2217 7.40003 89.2217 9.30003 90.2217C9.30003 90.2217 11.5475 91.238 13 91.6217C15.0821 92.1718 18.2 91.6217 18.2 91.6217C21.2 91.3217 26.6 90.1217 30.2 88.9217C40.6 85.3217 57.8 76.6217 70 68.9217L81.3 61.7217L86.1 64.8217C86.1 64.8217 88.9771 66.558 91 67.5C93.7047 68.7595 98.3 69.8217 98.3 69.8217C102.4 70.8217 109.3 72.0217 113.7 72.3217C113.7 72.3217 118.365 72.5813 121.5 72.5C124.454 72.4234 129.2 72.0217 129.2 72.0217C133.3 71.5217 136.9 71.2217 137.3 71.4217C137.6 71.7217 137.1 74.2217 136.1 77.1217C135.1 80.0217 134.3 84.9217 134.2 87.9217C134.2 87.9217 133.499 91.3916 134.2 93.4217C134.681 94.8146 134.5 95.2 135.5 97C136.5 98.8 138.8 101.1 140.5 102C140.5 102 142.945 102.993 144.6 103.222C147.206 103.582 151.3 102.522 151.3 102.522C164.9 101.322 195.8 91.6217 216.7 82.2217C223.3 79.2217 229.8 76.4217 231.2 76.1217L233.7 75.6217L231.9 77.3217C231.9 77.3217 230.986 78.1966 230.5 79C229.449 80.7378 229.5 82.091 229.5 84.1217C229.5 86.1525 230.3 87.5 231.5 89.5C232.581 91.3021 234.2 93.0217 234.2 93.0217C240.4 98.7217 247.8 99.4217 260 95.4217C267.8 92.8217 276.1 88.2217 284 82.3217L288.5 79C288.5 79 289.903 82.4011 291 84.5C292.024 86.46 292.218 87.7683 293.8 89.4217C295.254 90.9414 295.812 91.3925 297.6 92.5C299.405 93.6183 300.996 94.4203 303 95.1217C305.256 95.9112 309 96.2217 309 96.2217C309 96.2217 313.102 96.3322 315.5 96C317.912 95.6658 317.9 95.4217 321.2 94.5217C324.5 93.6217 329.6 91.7217 332.6 90.4217C342.6 86.0217 361.7 73.2217 366 68.0217C366.6 67.2217 367.2 65.5217 367.2 64.2217V62.0217L365.3 60.9217C362.2 59.3217 360.7 59.7217 357.1 62.9217C351.1 68.3217 337.9 76.7217 329.1 80.8217L320.5 84.8217C320.5 84.8217 317.801 85.7597 316 86C314.065 86.2583 313 86 311 86C309.604 86 307.428 85.4513 306.1 85.0217C304.772 84.5922 304.128 84.3219 303 83.5C301.748 82.5878 301.372 81.9016 300.5 80.6217C299.615 79.3237 298.793 78.0209 298.4 76.5C297.8 74.1783 297.6 71.0217 297.6 71.0217L296.9 64.7217L295 63.6217C294 62.9217 293.2 61.4217 293.2 60.2217V58.0217L290 55C290 55 287.71 53.0376 286.1 52.2217C284.241 51.2799 283.535 50.95 281.5 50.5C279.473 50.0519 277.774 50.0148 275.7 49.9217C273.173 49.8083 269.3 50.9217 269.3 50.9217C263.3 51.9217 255.6 55.3217 248.5 59.9217L245.4 62.0217L244.7 60.9217C244.4 60.4217 243.4 59.9217 242.6 59.9217C241.9 59.9217 233.7 63.5217 224.5 67.8217C206.2 76.4217 188.6 83.2217 172.3 87.8217C160 91.4217 148.2 93.5217 145.9 92.6217C145.9 92.6217 144.735 92.4796 144.2 92.0217C143.073 91.0567 143.5 90.2217 143.5 87.5C143.5 84.7783 146.6 75.7217 149.7 70.3217C151.1 68.0217 152.2 65.1217 152.2 64.0217C152.2 64.0217 152.554 62.7178 152.2 62.0217C151.772 61.18 150.1 60.8217 150.1 60.8217C150.1 60.8217 148.432 60.232 147.5 60C144.6 59.2783 133.3 61.4217 133.3 61.4217C133.3 61.4217 122.8 63.2783 119 63C115.2 62.7217 110.6 62.1217 110.6 62.1217C100.3 60.7217 92.6 57.8217 87.5 53.4217L83.4 49.9217L81 50.0217C79.8 50.0217 76.6 51.7217 74 53.8217ZM283.9 63.2217C285.7 64.4217 287.2 65.7217 287.2 66.1217C287.2 66.5217 283.8 69.6217 279.7 72.8217C266.8 83.1217 248.778 88.5 246.5 88.5C244.222 88.5 242.506 88.5 241.2 86.9217C239.894 85.3435 239.979 84.5933 240 83.5C240.032 81.8194 240.367 81.3441 241 80.5C242.5 78.5 243.5 77.3217 243.5 77.3217C247.5 73 255.5 66.8217 261.5 63.7217C266.5 61.2217 272.8 59.9217 277.2 60.6217C279.1 60.8217 282.2 62.0217 283.9 63.2217Z" fill="currentColor"/>
    <path d="M369.6 63.7217C369.6 63.7217 368.161 64.037 368 65C367.5 68 369.4 72.2217 369.4 72.2217C369.4 72.2217 370.934 76.4117 371.2 79.2217C371.503 82.4214 370.5 87.4217 370.5 87.4217L369.8 95.7217L363.7 99.7217C354.8 105.522 340.8 117.522 330.8 128.022C321.2 137.922 316.4 144.8 310.7 156.722L309.5 160.322V165C309.5 165 309.607 167.201 310.3 168.222C311.17 169.505 311.5 170.9 313 172C314.5 173.1 317.5 173.422 317.5 173.422C317.5 173.422 321.649 173.581 324.3 173.422C327.129 173.251 328.79 173.351 331.5 172.522C333.905 171.786 335.231 171.086 337.5 170C339.8 168.899 341.541 167.633 343.5 166C346.5 163.5 349.9 160.322 349.9 160.322C353.6 156.722 358.8 150.222 361.4 145.922C367 136.922 374 120.022 376.6 109.122L378.4 101.522L384.9 97.6217C394.2 92.0217 411.1 84.0217 421 80.4217C431.5 76.7217 440.1 74.6217 450.5 73.2217C454.9 72.6217 459.5 71.6217 460.8 71.0217C460.8 71.0217 462.454 70.7122 463 69.9217C463.644 68.9898 464 68.1325 464 67C464 65.9065 463.585 65.1455 463 64.2217C462.42 63.3069 461.784 62.9523 460.8 62.5C459.831 62.0545 459.067 61.9217 458 61.9217C455.5 61.9217 449.4 63.1217 449.4 63.1217C440 64.4217 424.3 68.3217 416.5 71.1217C407.7 74.4217 395.4 80.1217 388.1 84.2217C384.2 86.4217 380.8 88.2217 380.5 88.2217C380.2 88.2217 380.1 86.2217 380.4 83.8217C380.7 81.4217 380.5 76.8217 380 73.6217C378.5 64.3217 374 61.5 369.6 63.7217ZM363.5 118.122C360.2 127.922 352.8 141.822 347.2 148.722C344.6 152.022 340 156.422 336.9 158.422L331.4 162.122C331.4 162.122 327.765 164.145 325.5 164.5C323.274 164.849 319.9 163.922 319.9 163.922L319.4 163.122C318.5 161.522 323 153.022 328.6 145.622C331.7 141.522 337.9 134.722 342.4 130.422C351.2 122.022 363.9 111.222 365.1 111.222C365.5 111.222 364.8 114.322 363.5 118.122Z" fill="currentColor"/>
</svg>
