<svg width="256" height="256" viewBox="0 0 256 256" fill="none" xmlns="http://www.w3.org/2000/svg">
    <path d="M148.907 14.0466C145.318 15.4802 125.249 37.8728 124.557 39.9817C123.866 42.0907 124.107 42.3138 124.301 43.4722C124.527 44.8222 126.223 46.0787 126.223 46.0787C127.505 46.7304 128.759 47.382 130.168 47.382C131.578 47.382 132.631 47.382 133.913 46.7304C135.194 46.0787 144.934 35.2899 144.934 35.2899C144.934 35.2899 156.083 22.6198 156.34 21.9682C156.596 21.3165 156.981 19.9824 156.981 18.71C156.981 17.4376 156.978 17.1981 156.34 16.1034C155.745 15.0821 154.417 14.1485 154.417 14.1485C154.417 14.1485 152.661 13.0907 151.47 13.0039C150.395 12.9256 148.907 14.0466 148.907 14.0466Z" fill="#F4BEBE"/>
    <path d="M118.021 88.0725C118.021 88.0725 116.177 88.4833 115.971 89.7384C115.33 93.6483 117.765 99.1503 117.765 99.1503C117.765 99.1503 119.731 104.611 120.072 108.273C120.46 112.443 119.175 118.96 119.175 118.96L118.278 129.777L110.46 134.99C99.0544 142.549 81.1126 158.189 68.2971 171.873C55.9942 184.776 49.8427 193.74 42.5379 209.277L41 213.969V220.066C41 220.066 41.1377 222.934 42.0252 224.265C43.1408 225.937 43.5631 227.755 45.4854 229.189C47.4078 230.622 51.2524 231.042 51.2524 231.042C51.2524 231.042 56.5699 231.25 59.967 231.042C63.5919 230.82 65.7215 230.949 69.1942 229.869C72.2765 228.91 73.9761 227.998 76.8835 226.582C79.8316 225.147 82.0619 223.497 84.5728 221.369C88.4175 218.111 92.7747 213.969 92.7747 213.969C97.5165 209.277 104.181 200.806 107.513 195.202C114.689 183.472 123.66 161.447 126.992 147.241L129.299 137.336L137.629 132.254C149.548 124.955 171.206 114.529 183.893 109.837C197.349 105.015 208.371 102.278 221.699 100.454C227.338 99.6717 233.233 98.3684 234.899 97.5864C234.899 97.5864 237.019 97.183 237.718 96.1528C238.543 94.9382 239 93.821 239 92.345C239 90.9199 238.468 89.928 237.718 88.7241C236.976 87.5319 236.16 87.0697 234.899 86.4802C233.657 85.8996 232.678 85.7266 231.311 85.7266C228.107 85.7266 220.289 87.2905 220.289 87.2905C208.243 88.9848 188.122 94.0676 178.126 97.7167C166.849 102.018 151.085 109.446 141.73 114.79C136.732 117.657 132.375 120.003 131.99 120.003C131.606 120.003 131.478 117.396 131.862 114.268C132.247 111.14 131.99 105.145 131.349 100.975C129.427 88.8545 123.66 85.177 118.021 88.0725ZM110.204 158.971C105.975 171.743 96.4912 189.858 89.3145 198.851C85.9825 203.152 80.0874 208.886 76.1146 211.493L69.066 216.315C69.066 216.315 64.407 218.952 61.5049 219.414C58.6515 219.869 54.3281 218.661 54.3281 218.661L53.6874 217.618C52.534 215.533 58.301 204.455 65.4777 194.811C69.4505 189.467 77.3961 180.605 83.1631 175.001C94.4408 164.053 110.716 149.978 112.254 149.978C112.767 149.978 111.87 154.018 110.204 158.971Z" fill="#F4BEBE"/>
</svg>

